<svg width="194" height="35" viewBox="0 0 194 35" fill="none" xmlns="http://www.w3.org/2000/svg">
<path d="M0 0.0999985C0.430761 1.78781 1.30807 3.32849 2.53979 4.56021C3.77151 5.79193 5.31219 6.66923 7 7.09999H18L18.5 7.19999V34.8H25.3V7.3L26 7H37C38.6831 6.55958 40.2186 5.67906 41.4488 4.44885C42.6791 3.21864 43.5596 1.68311 44 0H0V0.0999985ZM186.3 6.9C189.9 5.9 192.9 3.1 193.7 0L155.6 0.0999985V20.7H186.7V27.9H162.3C160.437 28.3846 158.698 29.2592 157.198 30.4659C155.699 31.6726 154.472 33.184 153.6 34.9H193.5V13.9H162.3V6.9H186.3Z" fill="black"/>
<path d="M85.1 0.199995H91.9L92 0.0999947V28.2H122.3C121.93 29.7365 121.189 31.1592 120.144 32.3443C119.098 33.5295 117.778 34.4411 116.3 35H85.1V0.199995Z" fill="black"/>
</svg>
